<svg width="20" height="20" viewBox="0 0 20 20" fill="none" xmlns="http://www.w3.org/2000/svg">
<path d="M17.8417 9.65001L10.3417 2.15001C10.0292 1.84007 9.60678 1.66632 9.16666 1.66667H3.33332C2.8913 1.66667 2.46737 1.84227 2.15481 2.15483C1.84225 2.46739 1.66666 2.89131 1.66666 3.33334V9.16667C1.66648 9.3866 1.70984 9.60438 1.79422 9.80748C1.87861 10.0106 2.00235 10.195 2.15832 10.35L9.65832 17.85C9.97081 18.1599 10.3932 18.3337 10.8333 18.3333C11.2746 18.3315 11.6972 18.1547 12.0083 17.8417L17.8417 12.0083C18.1546 11.6972 18.3315 11.2747 18.3333 10.8333C18.3335 10.6134 18.2901 10.3956 18.2058 10.1925C18.1214 9.98944 17.9976 9.80505 17.8417 9.65001ZM10.8333 16.6667L3.33332 9.16667V3.33334H9.16666L16.6667 10.8333M5.41666 4.16667C5.66388 4.16667 5.90556 4.23998 6.11112 4.37734C6.31668 4.51469 6.4769 4.70991 6.57151 4.93832C6.66612 5.16673 6.69087 5.41806 6.64264 5.66053C6.59441 5.90301 6.47536 6.12574 6.30054 6.30056C6.12572 6.47537 5.903 6.59442 5.66052 6.64265C5.41804 6.69089 5.16671 6.66613 4.9383 6.57152C4.7099 6.47691 4.51467 6.3167 4.37732 6.11114C4.23997 5.90557 4.16666 5.6639 4.16666 5.41667C4.16666 5.08515 4.29835 4.76721 4.53277 4.53279C4.76719 4.29837 5.08514 4.16667 5.41666 4.16667Z" fill="#464956"/>
</svg>
