<svg width="19" height="21" viewBox="0 0 19 21" fill="none" xmlns="http://www.w3.org/2000/svg">
<path d="M13.7043 12.3311C11.3243 12.3311 9.3932 14.271 9.3932 16.6662C9.3932 19.0594 11.3237 21.0007 13.7043 21.0007C16.0849 21.0007 18.0161 19.0608 18.0161 16.6662C18.0161 14.271 16.0856 12.3311 13.7043 12.3311ZM12.78 19.3313L10.478 17.0171L11.3816 16.1078L12.78 17.514L15.8219 14.4551L16.7249 15.3638L12.78 19.3313Z" fill="#ECF1FF"/>
<path d="M1.75053 18.9429V1.15108H10.6491V5.76075H15.2339V11.9347C15.6414 12.0672 16.025 12.2547 16.3786 12.4831V5.28398L11.1232 0H0.607155V20.094H10.125C9.8014 19.7525 9.52571 19.3661 9.30796 18.9429H1.75053Z" fill="#ECF1FF"/>
<path d="M4.72183 9.44969C5.61404 9.44969 6.33733 8.72237 6.33733 7.82519C6.33733 6.928 5.61404 6.20068 4.72183 6.20068C3.82961 6.20068 3.10632 6.928 3.10632 7.82519C3.10632 8.72237 3.82961 9.44969 4.72183 9.44969Z" fill="#ECF1FF"/>
<path d="M13.2728 6.86093H7.78702V8.78944H13.2728V6.86093Z" fill="#ECF1FF"/>
<path d="M4.72183 13.7406C5.61404 13.7406 6.33733 13.0133 6.33733 12.1161C6.33733 11.219 5.61404 10.4916 4.72183 10.4916C3.82961 10.4916 3.10632 11.219 3.10632 12.1161C3.10632 13.0133 3.82961 13.7406 4.72183 13.7406Z" fill="#ECF1FF"/>
<path d="M13.2728 11.7104V11.1519H7.78702V13.0804H10.2802C11.072 12.315 12.1154 11.8115 13.2728 11.7104Z" fill="#ECF1FF"/>
<path d="M4.72183 17.8226C5.61404 17.8226 6.33733 17.0953 6.33733 16.1981C6.33733 15.301 5.61404 14.5736 4.72183 14.5736C3.82961 14.5736 3.10632 15.301 3.10632 16.1981C3.10632 17.0953 3.82961 17.8226 4.72183 17.8226Z" fill="#ECF1FF"/>
<path d="M7.78702 15.2346V17.1631H8.77923C8.76324 16.999 8.75392 16.8336 8.75392 16.6662C8.75392 16.168 8.82917 15.6892 8.96435 15.2346H7.78702Z" fill="#ECF1FF"/>
</svg>
