<svg width="15" height="17" viewBox="0 0 15 17" fill="none" xmlns="http://www.w3.org/2000/svg">
<path d="M9.62786 14.1358C9.62786 14.3675 9.56754 14.597 9.45039 14.8111C9.33316 15.0253 9.16144 15.2199 8.94487 15.3837C8.72837 15.5476 8.4713 15.6776 8.18841 15.7663C7.90553 15.8549 7.60228 15.9006 7.29608 15.9006C6.98988 15.9006 6.6867 15.8549 6.40374 15.7663C6.12086 15.6776 5.86382 15.5476 5.6473 15.3837C5.43077 15.2199 5.25901 15.0253 5.14183 14.8111C5.02465 14.597 4.96434 14.3675 4.96434 14.1358" stroke="#FFFEFE" stroke-linecap="round"/>
<path d="M12.7809 7.51312C12.8585 8.15041 13.0379 8.77327 13.314 9.35831L13.5197 9.79431C14.3045 11.4574 13.2825 13.4013 11.4482 13.7344L11.3237 13.757C8.66122 14.2407 5.93105 14.2407 3.26855 13.757C1.41927 13.4211 0.440916 11.4105 1.33579 9.78499L1.51179 9.46527C1.99234 8.59237 2.24398 7.61556 2.24398 6.62306V5.61364C2.24398 3.91475 3.2224 2.36222 4.77006 1.60533C6.11582 0.947178 7.6564 0.824799 9.0768 1.24267" stroke="#FFFEFE" stroke-linecap="round"/>
<path d="M12.0565 5.6994C13.1299 5.6994 14 4.84431 14 3.7895C14 2.73469 13.1299 1.87959 12.0565 1.87959C10.9832 1.87959 10.1131 2.73469 10.1131 3.7895C10.1131 4.84431 10.9832 5.6994 12.0565 5.6994Z" stroke="#FFFEFE"/>
</svg>
