<svg width="18" height="18" viewBox="0 0 18 18" fill="none" xmlns="http://www.w3.org/2000/svg">
<path d="M5.54735 17.1081C5.54735 17.5721 5.92344 17.9481 6.38737 17.9481C6.85128 17.9481 7.22737 17.5721 7.22737 17.1081H5.54735ZM10.7755 17.1081C10.7755 17.5721 11.1516 17.9481 11.6155 17.9481C12.0794 17.9481 12.4555 17.5721 12.4555 17.1081H10.7755ZM6.38737 17.9481C6.85128 17.9481 7.22737 17.5721 7.22737 17.1081C7.22737 16.6442 6.85128 16.2681 6.38737 16.2681V17.9481ZM3.77327 17.1081L3.76471 17.9481H3.77327V17.1081ZM1.49743 15.1514L0.658013 15.1826C0.659289 15.2172 0.662717 15.2517 0.668261 15.286L1.49743 15.1514ZM1.19615 7.02142L2.03558 6.99031C2.03416 6.9519 2.03009 6.91362 2.02343 6.87576L1.19615 7.02142ZM2.44159 4.49918L2.05969 3.75099L2.05429 3.75379L2.44159 4.49918ZM7.96881 1.6779L8.35073 2.42607L8.35241 2.42519L7.96881 1.6779ZM10.0352 1.6779L9.65161 2.42519L9.65329 2.42607L10.0352 1.6779ZM15.5624 4.49918L15.9497 3.75378L15.9443 3.75101L15.5624 4.49918ZM16.8079 7.02142L15.9805 6.87576C15.9739 6.91359 15.9699 6.95182 15.9684 6.99019L16.8079 7.02142ZM16.5055 15.1514L17.3346 15.286C17.3402 15.2518 17.3435 15.2173 17.3449 15.1827L16.5055 15.1514ZM14.2296 17.1081V17.9482L14.2381 17.9481L14.2296 17.1081ZM11.6155 16.2681C11.1516 16.2681 10.7755 16.6442 10.7755 17.1081C10.7755 17.5721 11.1516 17.9481 11.6155 17.9481V16.2681ZM6.38737 16.2681C5.92344 16.2681 5.54735 16.6442 5.54735 17.1081C5.54735 17.5721 5.92344 17.9481 6.38737 17.9481V16.2681ZM11.6155 17.9481C12.0794 17.9481 12.4555 17.5721 12.4555 17.1081C12.4555 16.6442 12.0794 16.2681 11.6155 16.2681V17.9481ZM7.22737 17.1081V14.4951H5.54735V17.1081H7.22737ZM7.22737 14.4951C7.22737 13.5153 8.02168 12.721 9.00145 12.721V11.041C7.09376 11.041 5.54735 12.5875 5.54735 14.4951H7.22737ZM9.00145 12.721C9.98123 12.721 10.7755 13.5153 10.7755 14.4951H12.4555C12.4555 12.5875 10.909 11.041 9.00145 11.041V12.721ZM10.7755 14.4951V17.1081H12.4555V14.4951H10.7755ZM6.38737 16.2681H3.77327V17.9481H6.38737V16.2681ZM3.78183 16.2682C3.05694 16.2608 2.44263 15.7326 2.32661 15.017L0.668261 15.286C0.915131 16.8086 2.22228 17.9324 3.76471 17.9481L3.78183 16.2682ZM2.33686 15.1204L2.03558 6.99031L0.356733 7.0525L0.658013 15.1826L2.33686 15.1204ZM2.02343 6.87576C1.907 6.21449 2.23308 5.55414 2.82889 5.24456L2.05429 3.75379C0.807567 4.40158 0.125263 5.78337 0.368874 7.16708L2.02343 6.87576ZM2.82349 5.24735L8.35073 2.42607L7.58689 0.929729L2.05969 3.75099L2.82349 5.24735ZM8.35241 2.42519C8.7602 2.21587 9.24382 2.21587 9.65161 2.42519L10.4188 0.930613C9.52942 0.474057 8.47461 0.474057 7.58521 0.930613L8.35241 2.42519ZM9.65329 2.42607L15.1805 5.24735L15.9443 3.75101L10.4171 0.929729L9.65329 2.42607ZM15.1751 5.24456C15.771 5.55414 16.097 6.21449 15.9805 6.87576L17.6351 7.16708C17.8787 5.78337 17.1964 4.40157 15.9497 3.75378L15.1751 5.24456ZM15.9684 6.99019L15.666 15.1203L17.3449 15.1827L17.6473 7.05261L15.9684 6.99019ZM15.6763 15.017C15.5603 15.7326 14.946 16.2608 14.221 16.2682L14.2381 17.9481C15.7806 17.9324 17.0877 16.8086 17.3346 15.286L15.6763 15.017ZM14.2296 16.2681H11.6155V17.9481L14.2296 17.9482V16.2681ZM6.38737 17.9481H11.6155V16.2681H6.38737V17.9481Z" fill="#EFF0F4"/>
</svg>
