<svg width="18" height="23" viewBox="0 0 18 23" fill="none" xmlns="http://www.w3.org/2000/svg">
<path d="M3.33963 4.17809H12.2375C12.4333 4.17809 12.5919 4.01851 12.5919 3.8217C12.5919 3.62488 12.4333 3.4653 12.2375 3.4653H3.33963C3.14391 3.4653 2.98521 3.62488 2.98521 3.8217C2.98521 4.01851 3.14391 4.17809 3.33963 4.17809Z" fill="#ECF1FF"/>
<path d="M3.33963 6.20998H12.2375C12.4333 6.20998 12.5919 6.05041 12.5919 5.85359C12.5919 5.65677 12.4333 5.49719 12.2375 5.49719H3.33963C3.14391 5.49719 2.98521 5.65677 2.98521 5.85359C2.98521 6.05041 3.14391 6.20998 3.33963 6.20998Z" fill="#ECF1FF"/>
<path d="M3.33963 8.2419H12.2375C12.4333 8.2419 12.5919 8.08233 12.5919 7.88551C12.5919 7.68869 12.4333 7.52911 12.2375 7.52911H3.33963C3.14391 7.52911 2.98521 7.68869 2.98521 7.88551C2.98521 8.08233 3.14391 8.2419 3.33963 8.2419Z" fill="#ECF1FF"/>
<path d="M3.33963 10.2738H12.2375C12.4333 10.2738 12.5919 10.1142 12.5919 9.9174C12.5919 9.72058 12.4333 9.561 12.2375 9.561H3.33963C3.14391 9.561 2.98521 9.72058 2.98521 9.9174C2.98521 10.1142 3.14391 10.2738 3.33963 10.2738Z" fill="#ECF1FF"/>
<path d="M3.33963 12.3057H12.2375C12.4333 12.3057 12.5919 12.1461 12.5919 11.9493C12.5919 11.7525 12.4333 11.5929 12.2375 11.5929H3.33963C3.14391 11.5929 2.98521 11.7525 2.98521 11.9493C2.98521 12.1461 3.14391 12.3057 3.33963 12.3057Z" fill="#ECF1FF"/>
<path d="M17.2114 14.8868C17.111 14.7807 16.9718 14.7208 16.8263 14.7208C16.8241 14.7208 16.8219 14.7208 16.8197 14.7208C16.5809 14.7208 16.3581 14.6247 16.1921 14.4502C16.0231 14.2724 15.9367 14.0394 15.9487 13.7937C15.9559 13.6475 15.9032 13.5048 15.8029 13.3987C15.7025 13.2927 15.5633 13.2327 15.4178 13.2327H15.1429V0.534592C15.1429 0.239408 14.9048 0 14.6113 0H0.966086C0.672537 0 0.434456 0.239408 0.434456 0.534592V19.3003C0.434456 19.5955 0.672537 19.8349 0.966086 19.8349H9.34333C10.0025 20.9398 10.9714 22.027 12.394 22.9191C12.4801 22.9731 12.5777 23.0001 12.6753 23.0001C12.773 23.0001 12.8705 22.9731 12.9566 22.9191C16.5498 20.6661 17.2561 17.1685 17.3573 15.2842C17.365 15.1372 17.3123 14.9934 17.2114 14.8868ZM12.6751 21.8281C10.0041 20.012 9.27076 17.3912 9.0932 15.7069C9.40677 15.6115 9.69244 15.4355 9.9268 15.1891C10.1636 14.9401 10.3292 14.6322 10.4098 14.3018H14.9406C15.0213 14.6322 15.1867 14.94 15.4236 15.1891C15.658 15.4355 15.9436 15.6115 16.2572 15.707C16.0795 17.3912 15.3461 20.012 12.6751 21.8281ZM1.49763 18.7657V1.06918H14.0795V13.2327H9.93273C9.78715 13.2327 9.64804 13.2927 9.54765 13.3987C9.48678 13.4631 9.44381 13.5409 9.42068 13.6249H3.33964C3.14391 13.6249 2.98522 13.7844 2.98522 13.9813C2.98522 14.1781 3.14391 14.3377 3.33964 14.3377H9.24808C9.22115 14.377 9.19182 14.4149 9.15832 14.4502C8.99228 14.6248 8.76953 14.7208 8.53074 14.7208C8.52941 14.7208 8.52799 14.7208 8.52666 14.7208C8.37984 14.7191 8.24002 14.7802 8.1391 14.8868C8.03818 14.9933 7.98546 15.1372 7.99335 15.2842C7.99973 15.4022 8.00841 15.5267 8.0201 15.6568H3.33964C3.14391 15.6568 2.98522 15.8163 2.98522 16.0132C2.98522 16.21 3.14391 16.3696 3.33964 16.3696H8.10889C8.22301 17.0899 8.43052 17.9156 8.79699 18.7657H1.49763Z" fill="#ECF1FF"/>
<path d="M12.6751 15.0727C11.4276 15.0727 10.4163 16.0897 10.4163 17.3441C10.4163 18.5985 11.4277 19.6155 12.6751 19.6155C13.9226 19.6155 14.9339 18.5985 14.9339 17.3441C14.9339 16.0897 13.9227 15.0727 12.6751 15.0727ZM13.2386 16.6062C13.3771 16.4669 13.6014 16.467 13.7398 16.6062C13.8782 16.7454 13.8782 16.9711 13.7398 17.1102L12.644 18.2122C12.5775 18.279 12.4873 18.3166 12.3933 18.3166C12.2993 18.3166 12.2092 18.2791 12.1426 18.2123L11.6105 17.6772C11.4721 17.5379 11.4721 17.3123 11.6105 17.1731C11.749 17.034 11.9733 17.034 12.1117 17.1731L12.3933 17.4563L13.2386 16.6062Z" fill="#ECF1FF"/>
</svg>
