<svg width="12" height="12" viewBox="0 0 12 12" fill="none" xmlns="http://www.w3.org/2000/svg">
<path d="M6.75 4H6V6.5L8.14 7.77L8.5 7.165L6.75 6.125V4ZM6.5 1.5C5.30653 1.5 4.16193 1.97411 3.31802 2.81802C2.47411 3.66193 2 4.80653 2 6H0.5L2.48 8.015L4.5 6H3C3 5.07174 3.36875 4.1815 4.02513 3.52513C4.6815 2.86875 5.57174 2.5 6.5 2.5C7.42826 2.5 8.3185 2.86875 8.97487 3.52513C9.63125 4.1815 10 5.07174 10 6C10 6.92826 9.63125 7.8185 8.97487 8.47487C8.3185 9.13125 7.42826 9.5 6.5 9.5C5.535 9.5 4.66 9.105 4.03 8.47L3.32 9.18C3.73574 9.60031 4.23109 9.93353 4.7771 10.1602C5.32311 10.3868 5.90882 10.5023 6.5 10.5C7.69347 10.5 8.83807 10.0259 9.68198 9.18198C10.5259 8.33807 11 7.19347 11 6C11 4.80653 10.5259 3.66193 9.68198 2.81802C8.83807 1.97411 7.69347 1.5 6.5 1.5Z" fill="#4E4E4E"/>
</svg>
