<svg width="23" height="24" viewBox="0 0 23 24" fill="none" xmlns="http://www.w3.org/2000/svg">
<path d="M14.0598 5.30417H17.1166L17.1168 8.89029L18.6665 6.47069V4.44246C18.6665 4.31857 18.6175 4.19977 18.5304 4.11177L14.5773 0.136857C14.4902 0.0493143 14.372 0 14.2486 0H2.02605C1.25696 0 0.631134 0.629029 0.631134 1.40246V22.5975C0.631134 23.3709 1.2569 24 2.02605 24H17.2716C18.0406 24 18.6664 23.3709 18.6664 22.5975V16.58L17.1171 18.9641L17.1173 22.4414H2.18101V1.55851H13.4841V4.7252C13.4841 5.04514 13.7418 5.30417 14.0598 5.30417Z" fill="#ECF1FF"/>
<path d="M20.3971 11.1499L19.7566 10.7291C19.6521 10.6605 19.5121 10.6899 19.4438 10.795L15.9951 16.1017L15.3319 15.6659L18.7806 10.3593C18.849 10.2541 18.8196 10.1133 18.7151 10.0446L18.0746 9.62377C17.97 9.55508 17.8299 9.58457 17.7617 9.68971L12.598 17.6356C12.576 17.6694 12.5635 17.7084 12.5614 17.7487L12.4264 20.5063C12.4225 20.5868 12.4613 20.6637 12.5286 20.7076C12.5958 20.7518 12.6813 20.7567 12.753 20.7208L15.2103 19.4892C15.2463 19.4713 15.2768 19.4439 15.2988 19.4101L20.4625 11.4642C20.531 11.3594 20.5016 11.2186 20.3971 11.1499Z" fill="#ECF1FF"/>
<path d="M22.513 7.89401L20.1905 6.36784C20.0861 6.29921 19.9459 6.3287 19.8776 6.43378L18.3113 8.84401C18.2431 8.94915 18.2723 9.09007 18.3769 9.15875L20.6993 10.6848C20.8038 10.7535 20.944 10.724 21.0122 10.6189L22.5785 8.2087C22.6469 8.10355 22.6175 7.9627 22.513 7.89401Z" fill="#ECF1FF"/>
<path d="M4.43832 4.99784H8.87077C9.18462 4.99784 9.43903 4.74195 9.43903 4.42641C9.43903 4.11087 9.18462 3.85498 8.87077 3.85498H4.43832C4.12447 3.85498 3.87006 4.11087 3.87006 4.42641C3.87006 4.74195 4.12458 4.99784 4.43832 4.99784Z" fill="#ECF1FF"/>
<path d="M12.8486 7.28356C12.8486 6.96801 12.5941 6.71213 12.2803 6.71213H4.43832C4.12447 6.71213 3.87006 6.96801 3.87006 7.28356C3.87006 7.5991 4.12447 7.85499 4.43832 7.85499H12.2803C12.5942 7.85499 12.8486 7.5991 12.8486 7.28356Z" fill="#ECF1FF"/>
<path d="M4.43832 10.7121H8.87077C9.18462 10.7121 9.43903 10.4562 9.43903 10.1407C9.43903 9.82513 9.18462 9.56924 8.87077 9.56924H4.43832C4.12447 9.56924 3.87006 9.82513 3.87006 10.1407C3.87006 10.4562 4.12458 10.7121 4.43832 10.7121Z" fill="#ECF1FF"/>
<path d="M4.43832 13.5692H8.87077C9.18462 13.5692 9.43903 13.3134 9.43903 12.9978C9.43903 12.6823 9.18462 12.4264 8.87077 12.4264H4.43832C4.12447 12.4264 3.87006 12.6823 3.87006 12.9978C3.87006 13.3134 4.12458 13.5692 4.43832 13.5692Z" fill="#ECF1FF"/>
<path d="M4.67888 20.9539C4.56824 21.0977 4.76782 21.3015 4.87982 21.1558C5.23288 20.6972 5.52446 20.2032 5.76796 19.6818C5.91991 19.7778 6.11943 19.7586 6.28309 19.6935C6.51898 19.6 6.71895 19.4195 6.90937 19.2561C7.02194 19.1595 7.15299 19.0001 7.3088 18.9848C7.4278 18.9733 7.5885 19.0697 7.70744 19.0902C8.01822 19.1434 8.38123 19.053 8.68127 18.9784C8.96603 18.9077 9.29949 18.7959 9.46707 18.5366C9.56725 18.3817 9.32114 18.2386 9.22175 18.3926C9.08758 18.6001 8.75998 18.6648 8.53858 18.7198C8.27871 18.7844 7.97719 18.8481 7.70937 18.8022C7.50753 18.7677 7.34426 18.6449 7.13673 18.7379C6.85874 18.8625 6.64638 19.1242 6.40089 19.301C6.29105 19.3801 6.16552 19.4561 6.02811 19.4667C5.97157 19.4711 5.92548 19.4503 5.88718 19.4155C5.91741 19.345 5.94742 19.2742 5.976 19.2027C6.25309 18.511 6.37839 17.8086 6.50699 17.0801C6.57234 16.7098 6.68104 16.1265 6.15336 16.0909C5.6871 16.0595 5.28414 16.7358 5.13514 17.0922C5.00188 17.411 4.98705 17.7813 4.99723 18.1216C5.00353 18.3337 5.07945 18.554 5.13543 18.7733C4.68798 18.8454 4.2936 19.2999 4.3627 19.7504C4.43072 20.1937 4.982 19.9648 5.18788 19.8007C5.39626 19.6347 5.46371 19.4274 5.46593 19.2037C5.50747 19.2726 5.54219 19.3551 5.5781 19.4324C5.33801 19.9739 5.037 20.4887 4.67888 20.9539ZM5.17691 19.3368C5.13486 19.5252 4.89772 19.7113 4.71099 19.7286C4.5641 19.7424 4.65371 19.4785 4.68275 19.4196C4.7739 19.2343 4.99973 19.1134 5.18958 19.0613C5.19845 19.1542 5.19703 19.2464 5.17691 19.3368ZM5.41422 18.7836C5.36586 18.5564 5.29875 18.3282 5.28136 18.1217C5.24772 17.7231 5.31812 17.3054 5.51469 16.9569C5.63749 16.739 5.88781 16.4052 6.15336 16.3766C6.39049 16.3513 6.24587 16.9312 6.22535 17.0477C6.16188 17.4074 6.11659 17.7643 6.02811 18.1199C5.94594 18.4501 5.84183 18.777 5.71733 19.0967C5.65113 18.9311 5.56492 18.825 5.41422 18.7836Z" fill="#ECF1FF"/>
</svg>
