<svg width="18" height="18" viewBox="0 0 18 18" fill="none" xmlns="http://www.w3.org/2000/svg">
<path d="M9 4.12547L8.5947 4.51554C8.70075 4.62572 8.84707 4.68797 9 4.68797C9.15292 4.68797 9.29925 4.62572 9.4053 4.51554L9 4.12547ZM5.25046 12.3157C5.01058 12.1183 4.6561 12.1527 4.45868 12.3925C4.26127 12.6324 4.29568 12.9869 4.53556 13.1843L5.25046 12.3157ZM1.75649 10.0586C1.90555 10.3312 2.24735 10.4313 2.51991 10.2822C2.79247 10.1331 2.89258 9.79132 2.74351 9.51877L1.75649 10.0586ZM2.0625 6.85282C2.0625 5.23967 2.97403 3.88688 4.21827 3.31814C5.42705 2.7656 7.05124 2.91193 8.5947 4.51554L9.4053 3.73539C7.57387 1.83263 5.44807 1.51904 3.75057 2.29496C2.08853 3.05468 0.9375 4.81877 0.9375 6.85282H2.0625ZM6.37306 14.6249C6.75724 14.9278 7.16965 15.2507 7.5876 15.4949C8.00542 15.739 8.4822 15.9375 9 15.9375V14.8125C8.7678 14.8125 8.49457 14.722 8.1552 14.5236C7.81597 14.3254 7.46406 14.0524 7.06954 13.7414L6.37306 14.6249ZM11.6269 14.6249C12.6969 13.7814 14.0646 12.8149 15.1375 11.6068C16.2296 10.3771 17.0625 8.85194 17.0625 6.85282H15.9375C15.9375 8.50087 15.2631 9.77114 14.2963 10.8598C13.3102 11.9702 12.0672 12.8453 10.9305 13.7414L11.6269 14.6249ZM17.0625 6.85282C17.0625 4.81877 15.9115 3.05468 14.2494 2.29496C12.5519 1.51904 10.4261 1.83263 8.5947 3.73539L9.4053 4.51554C10.9487 2.91193 12.5729 2.7656 13.7817 3.31814C15.0259 3.88688 15.9375 5.23967 15.9375 6.85282H17.0625ZM10.9305 13.7414C10.5359 14.0524 10.184 14.3254 9.8448 14.5236C9.50542 14.722 9.2322 14.8125 9 14.8125V15.9375C9.5178 15.9375 9.99457 15.739 10.4124 15.4949C10.8304 15.2507 11.2427 14.9278 11.6269 14.6249L10.9305 13.7414ZM7.06954 13.7414C6.4726 13.2709 5.86597 12.8222 5.25046 12.3157L4.53556 13.1843C5.15826 13.6968 5.81604 14.1858 6.37306 14.6249L7.06954 13.7414ZM2.74351 9.51877C2.3226 8.74919 2.0625 7.87747 2.0625 6.85282H0.9375C0.9375 8.08094 1.25246 9.13702 1.75649 10.0586L2.74351 9.51877Z" fill="white"/>
</svg>
