<svg width="17" height="17" viewBox="0 0 17 17" fill="none" xmlns="http://www.w3.org/2000/svg">
<path d="M7.62875 12.9625C6.57383 12.9625 5.54261 12.6497 4.66548 12.0636C3.78835 11.4775 3.10471 10.6445 2.70101 9.66989C2.29731 8.69527 2.19168 7.62283 2.39749 6.58819C2.60329 5.55354 3.11128 4.60316 3.85722 3.85722C4.60316 3.11128 5.55354 2.60329 6.58819 2.39749C7.62283 2.19168 8.69527 2.29731 9.66989 2.70101C10.6445 3.10471 11.4775 3.78835 12.0636 4.66548C12.6497 5.54261 12.9625 6.57383 12.9625 7.62875C12.9625 8.32919 12.8245 9.02277 12.5565 9.66989C12.2884 10.317 11.8956 10.905 11.4003 11.4003C10.905 11.8956 10.317 12.2884 9.66989 12.5565C9.02277 12.8245 8.32919 12.9625 7.62875 12.9625ZM7.62875 3.36458C6.78818 3.36458 5.96649 3.61384 5.26758 4.08084C4.56867 4.54783 4.02393 5.21159 3.70226 5.98818C3.38059 6.76476 3.29643 7.6193 3.46041 8.44372C3.6244 9.26814 4.02917 10.0254 4.62355 10.6198C5.21792 11.2142 5.9752 11.6189 6.79962 11.7829C7.62404 11.9469 8.47857 11.8627 9.25515 11.5411C10.0317 11.2194 10.6955 10.6747 11.1625 9.97576C11.6295 9.27685 11.8788 8.45515 11.8788 7.61458C11.8788 6.48741 11.431 5.40641 10.634 4.60938C9.83692 3.81235 8.75592 3.36458 7.62875 3.36458Z" fill="#24346E"/>
<path d="M14.1667 14.6979C14.0969 14.6982 14.0277 14.6846 13.9632 14.6579C13.8988 14.6311 13.8403 14.5917 13.7912 14.5421L10.8658 11.6167C10.772 11.516 10.7209 11.3828 10.7233 11.2451C10.7258 11.1075 10.7815 10.9762 10.8789 10.8789C10.9762 10.7815 11.1075 10.7258 11.2451 10.7233C11.3828 10.7209 11.516 10.772 11.6167 10.8658L14.5421 13.7912C14.6416 13.8909 14.6974 14.0259 14.6974 14.1667C14.6974 14.3074 14.6416 14.4425 14.5421 14.5421C14.493 14.5917 14.4346 14.6311 14.3701 14.6579C14.3056 14.6846 14.2365 14.6982 14.1667 14.6979Z" fill="#24346E"/>
</svg>
