<svg width="23" height="25" viewBox="0 0 23 25" fill="none" xmlns="http://www.w3.org/2000/svg">
<path d="M10.5504 10.3333C13.1134 10.3333 15.1912 8.244 15.1912 5.66667C15.1912 3.08934 13.1134 1 10.5504 1C7.98732 1 5.90956 3.08934 5.90956 5.66667C5.90956 8.244 7.98732 10.3333 10.5504 10.3333Z" stroke="#ECF1FF"/>
<path d="M17.5116 10.6834C18.1157 11.2301 18.4543 11.5367 19.0584 12.0834L22.1524 8.58337" stroke="#ECF1FF" stroke-linecap="round" stroke-linejoin="round"/>
<path d="M19.829 19.6666C19.8319 19.4751 19.8319 19.2805 19.8319 19.0833C19.8319 16.1838 15.6764 13.8333 10.5503 13.8333C5.42417 13.8333 1.26865 16.1838 1.26865 19.0833C1.26865 21.9828 1.26865 24.3333 10.5503 24.3333C13.1387 24.3333 15.0052 24.1505 16.3513 23.8239" stroke="#ECF1FF" stroke-linecap="round"/>
</svg>
